<?xml version="1.0" encoding="UTF-8" standalone="no"?>
<!DOCTYPE svg PUBLIC "-//W3C//DTD SVG 1.1//EN" "http://www.w3.org/Graphics/SVG/1.1/DTD/svg11.dtd">
<svg version="1.1" xmlns="http://www.w3.org/2000/svg" xmlns:xlink="http://www.w3.org/1999/xlink" preserveAspectRatio="xMidYMid meet" viewBox="150 180 275 300" width="300" height="300"><defs><path d="M428.52 336.17C428.52 411.78 369 473.17 295.69 473.17C222.38 473.17 162.86 411.78 162.86 336.17C162.86 260.55 222.38 199.17 295.69 199.17C369 199.17 428.52 260.55 428.52 336.17Z" id="a2JlCGoEJ"></path><path d="M404.62 258L404.62 414.14L202.05 414.14L202.05 258L404.62 258Z" id="a19wGDyZGq"></path><path d="M422.73 213.96L422.73 448.67L183.94 448.67L183.94 213.96L422.73 213.96Z" id="a1AP9MAX8S"></path><path d="M422.73 191.85L422.73 473.17L162.86 473.17L162.86 191.85L422.73 191.85Z" id="a8bpophNt"></path><path d="M407.62 221.22L407.62 418.78L199.04 418.78L199.04 221.22L407.62 221.22Z" id="a25jkPzBMd"></path><path d="M415.08 228.24L415.08 444.09L176.29 444.09L176.29 228.24L415.08 228.24Z" id="i2b30swfl"></path><path d="M316.78 266.18L334.99 284.17L375.28 284.17L375.28 392.09L216.09 392.09L216.09 284.17L256.39 284.17L274.59 266.18L316.78 266.18M265.84 248.2L247.63 266.18C228.71 266.18 218.19 266.18 216.09 266.18C205.15 266.18 196.19 274.28 196.19 284.17C196.19 294.96 196.19 381.3 196.19 392.09C196.19 401.99 205.15 410.08 216.09 410.08C232.01 410.08 359.36 410.08 375.28 410.08C386.23 410.08 395.18 401.99 395.18 392.09C395.18 381.3 395.18 294.96 395.18 284.17C395.18 274.28 386.23 266.18 375.28 266.18C373.18 266.18 362.67 266.18 343.74 266.18L325.54 248.2L265.84 248.2ZM295.69 311.15C312.1 311.15 325.54 323.29 325.54 338.13C325.54 352.97 312.1 365.11 295.69 365.11C279.27 365.11 265.84 352.97 265.84 338.13C265.84 323.29 279.27 311.15 295.69 311.15M245.94 338.13C245.94 362.96 268.23 383.1 295.69 383.1C323.15 383.1 345.43 362.96 345.43 338.13C345.43 313.31 323.15 293.17 295.69 293.17C268.23 293.17 245.94 313.31 245.94 338.13Z" id="dtHKM6mCj"></path></defs><g><g><g><use xlink:href="#a2JlCGoEJ" opacity="1" fill="#ffffff" fill-opacity="1"></use><g><use xlink:href="#a2JlCGoEJ" opacity="1" fill-opacity="0" stroke="#060606" stroke-width="5" stroke-opacity="1"></use></g></g><g><use xlink:href="#a19wGDyZGq" opacity="1" fill="#000000" fill-opacity="0"></use><g><use xlink:href="#a19wGDyZGq" opacity="1" fill-opacity="0" stroke="#000000" stroke-width="1" stroke-opacity="0"></use></g></g><g><use xlink:href="#a1AP9MAX8S" opacity="1" fill="#000000" fill-opacity="0"></use><g><use xlink:href="#a1AP9MAX8S" opacity="1" fill-opacity="0" stroke="#000000" stroke-width="1" stroke-opacity="0"></use></g></g><g><use xlink:href="#a8bpophNt" opacity="1" fill="#000000" fill-opacity="0"></use><g><use xlink:href="#a8bpophNt" opacity="1" fill-opacity="0" stroke="#000000" stroke-width="1" stroke-opacity="0"></use></g></g><g><use xlink:href="#a25jkPzBMd" opacity="1" fill="#000000" fill-opacity="0"></use><g><use xlink:href="#a25jkPzBMd" opacity="1" fill-opacity="0" stroke="#000000" stroke-width="1" stroke-opacity="0"></use></g></g><g><use xlink:href="#i2b30swfl" opacity="1" fill="#000000" fill-opacity="0"></use><g><use xlink:href="#i2b30swfl" opacity="1" fill-opacity="0" stroke="#000000" stroke-width="1" stroke-opacity="0"></use></g></g><g><use xlink:href="#dtHKM6mCj" opacity="1" fill="#000000" fill-opacity="1"></use><g><use xlink:href="#dtHKM6mCj" opacity="1" fill-opacity="0" stroke="#000000" stroke-width="1" stroke-opacity="0"></use></g></g></g></g></svg>